<svg width="239.43125px" height="81.19999999999999px" xmlns="http://www.w3.org/2000/svg" viewBox="130.284375 34.400000000000006 239.43125 81.19999999999999" style="background: none;" preserveAspectRatio="xMidYMid"><defs><filter id="editing-hole" x="-100%" y="-100%" width="300%" height="300%"><feFlood flood-color="#d88c51" result="black"></feFlood><feMorphology operator="dilate" radius="2" in="SourceGraphic" result="erode"></feMorphology><feGaussianBlur in="erode" stdDeviation="4" result="blur"></feGaussianBlur><feOffset in="blur" dx="2" dy="2" result="offset"></feOffset><feComposite operator="atop" in="offset" in2="black" result="merge"></feComposite><feComposite operator="in" in="merge" in2="SourceGraphic" result="inner-shadow"></feComposite></filter></defs><g filter="url(#editing-hole)"><g transform="translate(169.21000611782074, 90.07500076293945)"><path d="M5.79 0L1.14 0L1.14-25.77L9-25.77L11.16-10.05L13.32-25.77L21.24-25.77L21.24 0L16.53 0L16.53-18.57L13.56 0L8.94 0L5.79-18.57L5.79 0ZM29.58 0.24L29.58 0.24Q26.19 0.24 24.72-1.62L24.72-1.62L24.72-1.62Q23.25-3.48 23.25-7.17L23.25-7.17L23.25-15.99L23.25-15.99Q23.25-19.02 24.99-20.61L24.99-20.61L24.99-20.61Q26.73-22.20 29.85-22.20L29.85-22.20L29.85-22.20Q36.18-22.20 36.18-15.99L36.18-15.99L36.18-14.40L36.18-14.40Q36.18-12 36.12-10.50L36.12-10.50L28.50-10.50L28.50-6.24L28.50-6.24Q28.50-5.10 28.74-4.46L28.74-4.46L28.74-4.46Q28.98-3.81 29.76-3.81L29.76-3.81L29.76-3.81Q30.36-3.81 30.61-4.17L30.61-4.17L30.61-4.17Q30.87-4.53 30.91-5.00L30.91-5.00L30.91-5.00Q30.96-5.46 30.96-6.36L30.96-6.36L30.96-8.49L36.18-8.49L36.18-7.23L36.18-7.23Q36.18-3.39 34.70-1.57L34.70-1.57L34.70-1.57Q33.21 0.24 29.58 0.24L29.58 0.24ZM28.47-13.11L30.96-13.11L30.96-15.93L30.96-15.93Q30.96-18.30 29.79-18.30L29.79-18.30L29.79-18.30Q28.47-18.30 28.47-15.93L28.47-15.93L28.47-13.11ZM44.10 0.24L44.10 0.24Q37.59 0.24 37.59-6.36L37.59-6.36L37.62-8.10L42.87-8.10L42.90-5.52L42.90-5.52Q42.90-4.74 43.20-4.33L43.20-4.33L43.20-4.33Q43.50-3.93 44.19-3.93L44.19-3.93L44.19-3.93Q45.24-3.93 45.24-5.64L45.24-5.64L45.24-5.64Q45.24-6.90 44.74-7.62L44.74-7.62L44.74-7.62Q44.25-8.34 43.17-9.15L43.17-9.15L40.38-11.31L40.38-11.31Q38.94-12.42 38.31-13.60L38.31-13.60L38.31-13.60Q37.68-14.79 37.68-16.95L37.68-16.95L37.68-16.95Q37.68-18.63 38.56-19.81L38.56-19.81L38.56-19.81Q39.45-21 40.92-21.60L40.92-21.60L40.92-21.60Q42.39-22.20 44.19-22.20L44.19-22.20L44.19-22.20Q50.58-22.20 50.58-15.84L50.58-15.84L50.58-15.42L45.15-15.42L45.15-16.26L45.15-16.26Q45.15-17.04 44.89-17.59L44.89-17.59L44.89-17.59Q44.64-18.15 44.04-18.15L44.04-18.15L44.04-18.15Q43.50-18.15 43.21-17.84L43.21-17.84L43.21-17.84Q42.93-17.52 42.93-16.98L42.93-16.98L42.93-16.98Q42.93-15.78 43.86-15.12L43.86-15.12L47.10-12.75L47.10-12.75Q48.84-11.46 49.77-9.95L49.77-9.95L49.77-9.95Q50.70-8.43 50.70-6.12L50.70-6.12L50.70-6.12Q50.70-3.06 48.96-1.41L48.96-1.41L48.96-1.41Q47.22 0.24 44.10 0.24L44.10 0.24ZM58.35 0.24L58.35 0.24Q51.84 0.24 51.84-6.36L51.84-6.36L51.87-8.10L57.12-8.10L57.15-5.52L57.15-5.52Q57.15-4.74 57.45-4.33L57.45-4.33L57.45-4.33Q57.75-3.93 58.44-3.93L58.44-3.93L58.44-3.93Q59.49-3.93 59.49-5.64L59.49-5.64L59.49-5.64Q59.49-6.90 58.99-7.62L58.99-7.62L58.99-7.62Q58.50-8.34 57.42-9.15L57.42-9.15L54.63-11.31L54.63-11.31Q53.19-12.42 52.56-13.60L52.56-13.60L52.56-13.60Q51.93-14.79 51.93-16.95L51.93-16.95L51.93-16.95Q51.93-18.63 52.81-19.81L52.81-19.81L52.81-19.81Q53.70-21 55.17-21.60L55.17-21.60L55.17-21.60Q56.64-22.20 58.44-22.20L58.44-22.20L58.44-22.20Q64.83-22.20 64.83-15.84L64.83-15.84L64.83-15.42L59.40-15.42L59.40-16.26L59.40-16.26Q59.40-17.04 59.14-17.59L59.14-17.59L59.14-17.59Q58.89-18.15 58.29-18.15L58.29-18.15L58.29-18.15Q57.75-18.15 57.46-17.84L57.46-17.84L57.46-17.84Q57.18-17.52 57.18-16.98L57.18-16.98L57.18-16.98Q57.18-15.78 58.11-15.12L58.11-15.12L61.35-12.75L61.35-12.75Q63.09-11.46 64.02-9.95L64.02-9.95L64.02-9.95Q64.95-8.43 64.95-6.12L64.95-6.12L64.95-6.12Q64.95-3.06 63.21-1.41L63.21-1.41L63.21-1.41Q61.47 0.24 58.35 0.24L58.35 0.24ZM70.56 0.24L70.56 0.24Q68.01 0.24 67.06-1.45L67.06-1.45L67.06-1.45Q66.12-3.15 66.12-6.30L66.12-6.30L66.12-6.30Q66.12-8.88 66.80-10.26L66.80-10.26L66.80-10.26Q67.47-11.64 68.67-12.29L68.67-12.29L68.67-12.29Q69.87-12.93 72.33-13.71L72.33-13.71L73.77-14.19L73.77-14.25L73.77-16.44L73.77-16.44Q73.77-17.31 73.42-17.77L73.42-17.77L73.42-17.77Q73.08-18.24 72.60-18.24L72.60-18.24L72.60-18.24Q72.18-18.24 71.86-17.85L71.86-17.85L71.86-17.85Q71.55-17.46 71.55-16.80L71.55-16.80L71.55-15.48L66.45-15.48L66.45-16.20L66.45-16.20Q66.45-19.44 67.96-20.82L67.96-20.82L67.96-20.82Q69.48-22.20 72.90-22.20L72.90-22.20L72.90-22.20Q75.63-22.20 77.34-20.77L77.34-20.77L77.34-20.77Q79.05-19.35 79.05-16.74L79.05-16.74L79.05 0L73.83 0L73.83-2.61L73.83-2.61Q73.44-1.26 72.58-0.51L72.58-0.51L72.58-0.51Q71.73 0.24 70.56 0.24L70.56 0.24ZM72.63-3.84L72.63-3.84Q73.23-3.84 73.48-4.33L73.48-4.33L73.48-4.33Q73.74-4.83 73.74-5.55L73.74-5.55L73.74-11.67L73.74-11.67Q72.57-11.22 72.02-10.53L72.02-10.53L72.02-10.53Q71.46-9.84 71.46-8.61L71.46-8.61L71.46-5.79L71.46-5.79Q71.46-3.84 72.63-3.84L72.63-3.84ZM86.97 3.21L86.97 3.21Q84.63 3.21 83.29 2.83L83.29 2.83L83.29 2.83Q81.96 2.46 80.67 1.41L80.67 1.41L82.47-1.62L82.47-1.62Q84.39-0.48 86.28-0.48L86.28-0.48L86.28-0.48Q87.51-0.48 88.14-1.26L88.14-1.26L88.14-1.26Q88.77-2.04 88.77-3.39L88.77-3.39L88.77-4.59L88.77-4.59Q88.14-2.34 85.44-2.34L85.44-2.34L85.44-2.34Q83.19-2.34 82.12-3.87L82.12-3.87L82.12-3.87Q81.06-5.40 81.06-7.95L81.06-7.95L81.06-16.20L81.06-16.20Q81.06-19.11 82.03-20.65L82.03-20.65L82.03-20.65Q83.01-22.20 85.44-22.20L85.44-22.20L85.44-22.20Q86.85-22.20 87.67-21.49L87.67-21.49L87.67-21.49Q88.50-20.79 88.77-19.50L88.77-19.50L88.77-21.96L94.14-21.96L94.14-3.72L94.14-3.72Q94.14-0.03 92.43 1.59L92.43 1.59L92.43 1.59Q90.72 3.21 86.97 3.21L86.97 3.21ZM87.54-6.30L87.54-6.30Q88.77-6.30 88.77-8.52L88.77-8.52L88.77-16.35L88.77-16.35Q88.77-17.01 88.41-17.61L88.41-17.61L88.41-17.61Q88.05-18.21 87.51-18.21L87.51-18.21L87.51-18.21Q86.82-18.21 86.58-17.71L86.58-17.71L86.58-17.71Q86.34-17.22 86.34-16.35L86.34-16.35L86.34-8.52L86.34-8.52Q86.34-7.53 86.58-6.92L86.58-6.92L86.58-6.92Q86.82-6.30 87.54-6.30L87.54-6.30ZM102.33 0.24L102.33 0.24Q98.94 0.24 97.47-1.62L97.47-1.62L97.47-1.62Q96-3.48 96-7.17L96-7.17L96-15.99L96-15.99Q96-19.02 97.74-20.61L97.74-20.61L97.74-20.61Q99.48-22.20 102.60-22.20L102.60-22.20L102.60-22.20Q108.93-22.20 108.93-15.99L108.93-15.99L108.93-14.40L108.93-14.40Q108.93-12 108.87-10.50L108.87-10.50L101.25-10.50L101.25-6.24L101.25-6.24Q101.25-5.10 101.49-4.46L101.49-4.46L101.49-4.46Q101.73-3.81 102.51-3.81L102.51-3.81L102.51-3.81Q103.11-3.81 103.36-4.17L103.36-4.17L103.36-4.17Q103.62-4.53 103.66-5.00L103.66-5.00L103.66-5.00Q103.71-5.46 103.71-6.36L103.71-6.36L103.71-8.49L108.93-8.49L108.93-7.23L108.93-7.23Q108.93-3.39 107.44-1.57L107.44-1.57L107.44-1.57Q105.96 0.24 102.33 0.24L102.33 0.24ZM101.22-13.11L103.71-13.11L103.71-15.93L103.71-15.93Q103.71-18.30 102.54-18.30L102.54-18.30L102.54-18.30Q101.22-18.30 101.22-15.93L101.22-15.93L101.22-13.11ZM122.25 0L117.24 0L119.73-25.77L128.46-25.77L130.92 0L126.03 0L125.67-4.17L122.55-4.17L122.25 0ZM123.90-21.39L122.94-8.28L125.28-8.28L124.14-21.39L123.90-21.39ZM132.39 4.38L132.39-21.96L137.73-21.96L137.73-20.79L137.73-20.79Q138.87-22.20 140.88-22.20L140.88-22.20L140.88-22.20Q143.43-22.20 144.44-20.49L144.44-20.49L144.44-20.49Q145.44-18.78 145.44-15.75L145.44-15.75L145.44-7.62L145.44-7.62Q145.44-5.04 145.14-3.40L145.14-3.40L145.14-3.40Q144.84-1.77 143.82-0.77L143.82-0.77L143.82-0.77Q142.80 0.24 140.73 0.24L140.73 0.24L140.73 0.24Q138.75 0.24 137.73-0.87L137.73-0.87L137.73 4.38L132.39 4.38ZM138.99-3.84L138.99-3.84Q139.71-3.84 139.92-4.50L139.92-4.50L139.92-4.50Q140.13-5.16 140.13-6.42L140.13-6.42L140.13-15.75L140.13-15.75Q140.13-16.89 139.92-17.49L139.92-17.49L139.92-17.49Q139.71-18.09 138.96-18.09L138.96-18.09L138.96-18.09Q137.73-18.09 137.73-15.81L137.73-15.81L137.73-6.18L137.73-6.18Q137.73-5.07 137.99-4.46L137.99-4.46L137.99-4.46Q138.24-3.84 138.99-3.84L138.99-3.84ZM147.39 4.38L147.39-21.96L152.73-21.96L152.73-20.79L152.73-20.79Q153.87-22.20 155.88-22.20L155.88-22.20L155.88-22.20Q158.43-22.20 159.44-20.49L159.44-20.49L159.44-20.49Q160.44-18.78 160.44-15.75L160.44-15.75L160.44-7.62L160.44-7.62Q160.44-5.04 160.14-3.40L160.14-3.40L160.14-3.40Q159.84-1.77 158.82-0.77L158.82-0.77L158.82-0.77Q157.80 0.24 155.73 0.24L155.73 0.24L155.73 0.24Q153.75 0.24 152.73-0.87L152.73-0.87L152.73 4.38L147.39 4.38ZM153.99-3.84L153.99-3.84Q154.71-3.84 154.92-4.50L154.92-4.50L154.92-4.50Q155.13-5.16 155.13-6.42L155.13-6.42L155.13-15.75L155.13-15.75Q155.13-16.89 154.92-17.49L154.92-17.49L154.92-17.49Q154.71-18.09 153.96-18.09L153.96-18.09L153.96-18.09Q152.73-18.09 152.73-15.81L152.73-15.81L152.73-6.18L152.73-6.18Q152.73-5.07 152.99-4.46L152.99-4.46L152.99-4.46Q153.24-3.84 153.99-3.84L153.99-3.84Z" fill="#774023"></path></g></g><style>text {
  font-size: 64px;
  font-family: Arial Black;
  dominant-baseline: central;
  text-anchor: middle;
}</style></svg>